<svg xmlns="http://www.w3.org/2000/svg" xmlns:xlink="http://www.w3.org/1999/xlink" width="1080" zoomAndPan="magnify" viewBox="0 0 810 1012.49997" height="1350" preserveAspectRatio="xMidYMid meet" version="1.0"><defs><clipPath id="d9b2ee4699"><path d="M 206 80.960938 L 322 80.960938 L 322 196 L 206 196 Z M 206 80.960938 " clip-rule="nonzero"/></clipPath><clipPath id="867d098d87"><path d="M 771 379 L 809.800781 379 L 809.800781 418 L 771 418 Z M 771 379 " clip-rule="nonzero"/></clipPath><clipPath id="5a7ab5f309"><path d="M 0.199219 413 L 39 413 L 39 452 L 0.199219 452 Z M 0.199219 413 " clip-rule="nonzero"/></clipPath></defs><path fill="#b2b5db" d="M 312.6875 371.132812 L 311.785156 384.542969 C 307.507812 411.5625 294.992188 433.171875 274.242188 449.371094 C 253.34375 465.554688 228.734375 472.121094 200.417969 469.058594 C 173.390625 464.785156 151.777344 452.273438 135.574219 431.523438 C 130.382812 424.816406 126.105469 417.511719 122.742188 409.601562 L 118.507812 397.40625 C 116.179688 389.011719 115 380.253906 114.972656 371.132812 C 115.679688 343.132812 125.332031 319.839844 143.929688 301.246094 C 162.527344 282.65625 185.828125 273.007812 213.832031 272.300781 C 241.835938 273.007812 265.136719 282.65625 283.734375 301.246094 C 302.332031 319.839844 311.980469 343.132812 312.6875 371.132812 " fill-opacity="1" fill-rule="nonzero"/><path fill="#fec455" d="M 383.570312 637.207031 L 383.046875 645.011719 C 380.554688 660.742188 373.269531 673.320312 361.191406 682.75 C 349.027344 692.171875 334.703125 695.992188 318.21875 694.210938 C 302.488281 691.722656 289.90625 684.4375 280.472656 672.359375 C 277.453125 668.457031 274.960938 664.203125 273.003906 659.597656 L 270.539062 652.5 C 269.183594 647.613281 268.5 642.515625 268.484375 637.207031 C 268.894531 620.910156 274.511719 607.351562 285.335938 596.527344 C 296.164062 585.707031 309.726562 580.089844 326.027344 579.679688 C 342.328125 580.089844 355.890625 585.707031 366.71875 596.527344 C 377.542969 607.351562 383.160156 620.910156 383.570312 637.207031 " fill-opacity="1" fill-rule="nonzero"/><path fill="#fca2b1" d="M 613.40625 402.382812 L 612.789062 411.5625 C 609.863281 430.050781 601.296875 444.839844 587.09375 455.925781 C 572.792969 467.003906 555.953125 471.496094 536.574219 469.402344 C 518.078125 466.472656 503.289062 457.910156 492.199219 443.714844 C 488.644531 439.125 485.71875 434.121094 483.417969 428.710938 L 480.519531 420.363281 C 478.925781 414.621094 478.121094 408.628906 478.101562 402.382812 C 478.585938 383.222656 485.191406 367.28125 497.917969 354.558594 C 510.644531 341.835938 526.589844 335.234375 545.753906 334.75 C 564.917969 335.234375 580.867188 341.835938 593.59375 354.558594 C 606.316406 367.28125 612.921875 383.222656 613.40625 402.382812 " fill-opacity="1" fill-rule="nonzero"/><path fill="#b2b5db" d="M 287.753906 890.863281 L 287.433594 895.632812 C 285.910156 905.238281 281.460938 912.921875 274.082031 918.683594 C 266.652344 924.4375 257.902344 926.773438 247.835938 925.683594 C 238.226562 924.164062 230.539062 919.714844 224.777344 912.335938 C 222.933594 909.953125 221.414062 907.355469 220.21875 904.542969 L 218.710938 900.207031 C 217.882812 897.222656 217.464844 894.109375 217.453125 890.863281 C 217.707031 880.910156 221.136719 872.628906 227.75 866.015625 C 234.363281 859.40625 242.648438 855.976562 252.605469 855.722656 C 262.5625 855.976562 270.847656 859.40625 277.457031 866.015625 C 284.070312 872.628906 287.503906 880.910156 287.753906 890.863281 " fill-opacity="1" fill-rule="nonzero"/><path fill="#b7c8a8" d="M 632.148438 779.039062 L 631.625 786.847656 C 629.132812 802.574219 621.851562 815.152344 609.769531 824.582031 C 597.605469 834.003906 583.28125 837.824219 566.796875 836.042969 C 551.066406 833.554688 538.484375 826.273438 529.050781 814.195312 C 526.03125 810.289062 523.539062 806.035156 521.582031 801.433594 L 519.117188 794.332031 C 517.761719 789.449219 517.078125 784.351562 517.0625 779.039062 C 517.472656 762.742188 523.089844 749.183594 533.917969 738.363281 C 544.742188 727.539062 558.304688 721.921875 574.605469 721.511719 C 590.90625 721.921875 604.472656 727.539062 615.296875 738.363281 C 626.121094 749.183594 631.738281 762.742188 632.148438 779.039062 " fill-opacity="1" fill-rule="nonzero"/><path fill="#b7c8a8" d="M 436.605469 313.367188 L 436.285156 318.136719 C 434.761719 327.742188 430.3125 335.425781 422.933594 341.1875 C 415.503906 346.941406 406.753906 349.277344 396.683594 348.1875 C 387.074219 346.667969 379.390625 342.21875 373.628906 334.839844 C 371.785156 332.457031 370.261719 329.859375 369.066406 327.046875 L 367.5625 322.710938 C 366.734375 319.726562 366.316406 316.613281 366.304688 313.367188 C 366.558594 303.414062 369.988281 295.132812 376.601562 288.519531 C 383.210938 281.910156 391.496094 278.480469 401.453125 278.230469 C 411.414062 278.480469 419.699219 281.910156 426.308594 288.519531 C 432.921875 295.132812 436.351562 303.414062 436.605469 313.367188 " fill-opacity="1" fill-rule="nonzero"/><path fill="#fca2b1" d="M 156.589844 641.015625 L 156.066406 648.824219 C 153.574219 664.550781 146.289062 677.128906 134.210938 686.558594 C 122.046875 695.980469 107.722656 699.800781 91.238281 698.019531 C 75.507812 695.53125 62.925781 688.246094 53.492188 676.171875 C 50.46875 672.265625 47.980469 668.011719 46.023438 663.410156 L 43.558594 656.308594 C 42.203125 651.425781 41.515625 646.328125 41.503906 641.015625 C 41.914062 624.71875 47.53125 611.160156 58.355469 600.339844 C 69.179688 589.515625 82.746094 583.898438 99.046875 583.488281 C 115.347656 583.898438 128.910156 589.515625 139.734375 600.339844 C 150.5625 611.160156 156.179688 624.71875 156.589844 641.015625 " fill-opacity="1" fill-rule="nonzero"/><path fill="#b2b5db" d="M 796.292969 611.402344 L 795.390625 624.8125 C 791.113281 651.832031 778.597656 673.441406 757.847656 689.640625 C 736.949219 705.828125 712.339844 712.390625 684.023438 709.332031 C 656.996094 705.054688 635.382812 692.542969 619.179688 671.792969 C 613.988281 665.089844 609.710938 657.78125 606.347656 649.871094 L 602.113281 637.675781 C 599.785156 629.285156 598.605469 620.527344 598.582031 611.402344 C 599.285156 583.40625 608.9375 560.109375 627.535156 541.519531 C 646.132812 522.925781 669.433594 513.277344 697.4375 512.570312 C 725.441406 513.277344 748.742188 522.925781 767.339844 541.519531 C 785.9375 560.109375 795.585938 583.40625 796.292969 611.402344 " fill-opacity="1" fill-rule="nonzero"/><path fill="#b2b5db" d="M 744.257812 227.101562 L 743.640625 236.28125 C 740.714844 254.769531 732.148438 269.558594 717.949219 280.644531 C 703.648438 291.722656 686.808594 296.214844 667.425781 294.121094 C 648.933594 291.195312 634.140625 282.632812 623.050781 268.433594 C 619.5 263.84375 616.570312 258.839844 614.273438 253.429688 L 611.371094 245.082031 C 609.777344 239.339844 608.972656 233.347656 608.957031 227.101562 C 609.4375 207.941406 616.042969 192 628.769531 179.277344 C 641.496094 166.554688 657.441406 159.953125 676.609375 159.46875 C 695.773438 159.953125 711.71875 166.554688 724.445312 179.277344 C 737.171875 192 743.777344 207.941406 744.257812 227.101562 " fill-opacity="1" fill-rule="nonzero"/><path fill="#fca2b1" d="M 744.046875 923.042969 L 743.726562 927.808594 C 742.203125 937.417969 737.753906 945.101562 730.375 950.859375 C 722.945312 956.613281 714.195312 958.949219 704.125 957.859375 C 694.515625 956.339844 686.832031 951.890625 681.070312 944.515625 C 679.222656 942.128906 677.703125 939.53125 676.507812 936.71875 L 675.003906 932.382812 C 674.175781 929.398438 673.757812 926.285156 673.746094 923.042969 C 673.996094 913.085938 677.429688 904.804688 684.042969 898.195312 C 690.652344 891.582031 698.9375 888.152344 708.894531 887.902344 C 718.855469 888.152344 727.136719 891.582031 733.75 898.195312 C 740.363281 904.804688 743.792969 913.085938 744.046875 923.042969 " fill-opacity="1" fill-rule="nonzero"/><g clip-path="url(#d9b2ee4699)"><path fill="#fec455" d="M 321.53125 138.460938 L 321.007812 146.265625 C 318.519531 161.992188 311.234375 174.570312 299.152344 184 C 286.988281 193.421875 272.664062 197.242188 256.179688 195.464844 C 240.449219 192.972656 227.867188 185.691406 218.433594 173.613281 C 215.414062 169.710938 212.921875 165.457031 210.96875 160.851562 L 208.5 153.753906 C 207.144531 148.867188 206.460938 143.769531 206.445312 138.460938 C 206.855469 122.164062 212.472656 108.601562 223.300781 97.78125 C 234.125 86.960938 247.6875 81.34375 263.988281 80.929688 C 280.289062 81.34375 293.855469 86.960938 304.679688 97.78125 C 315.503906 108.601562 321.121094 122.164062 321.53125 138.460938 " fill-opacity="1" fill-rule="nonzero"/></g><g clip-path="url(#867d098d87)"><path fill="#fca2b1" d="M 809.800781 398.910156 L 809.5625 401.507812 C 808.613281 406.730469 806.085938 410.867188 801.984375 413.914062 C 797.851562 416.960938 793.046875 418.121094 787.5625 417.398438 C 782.335938 416.449219 778.199219 413.921875 775.148438 409.824219 C 772.097656 405.695312 770.9375 400.894531 771.660156 395.414062 C 772.613281 390.191406 775.140625 386.054688 779.242188 383.007812 C 783.371094 379.960938 788.175781 378.800781 793.660156 379.523438 C 798.886719 380.472656 803.023438 383 806.074219 387.097656 C 807.054688 388.421875 807.851562 389.859375 808.46875 391.410156 L 809.234375 393.796875 C 809.648438 395.433594 809.835938 397.140625 809.800781 398.910156 " fill-opacity="1" fill-rule="nonzero"/></g><g clip-path="url(#5a7ab5f309)"><path fill="#b7c8a8" d="M 38.65625 433.203125 L 38.421875 435.800781 C 37.46875 441.023438 34.941406 445.160156 30.839844 448.207031 C 26.710938 451.253906 21.902344 452.414062 16.421875 451.695312 C 11.195312 450.742188 7.054688 448.214844 4.003906 444.117188 C 3.027344 442.792969 2.230469 441.355469 1.613281 439.804688 L 0.84375 437.421875 C 0.433594 435.78125 0.242188 434.078125 0.28125 432.308594 C 0.542969 426.878906 2.523438 422.402344 6.214844 418.878906 C 9.910156 415.355469 14.476562 413.589844 19.917969 413.582031 C 25.347656 413.84375 29.828125 415.824219 33.351562 419.511719 C 36.878906 423.203125 38.644531 427.769531 38.65625 433.203125 " fill-opacity="1" fill-rule="nonzero"/></g><path fill="#f7f2f8" d="M 169.21875 311.050781 C 169.21875 313.304688 168.152344 315.425781 166.339844 316.765625 C 153.886719 325.992188 145.449219 340.574219 143.660156 355.964844 C 142.347656 367.253906 144.527344 378.953125 149.8125 389.015625 C 151.636719 392.496094 150.296875 396.796875 146.820312 398.621094 C 143.339844 400.449219 139.039062 399.109375 137.210938 395.628906 C 130.59375 383.035156 127.882812 368.457031 129.523438 354.324219 C 131.765625 335.027344 142.253906 316.898438 157.867188 305.335938 L 154.988281 311.050781 C 154.988281 307.121094 158.171875 303.9375 162.105469 303.9375 C 166.035156 303.9375 169.21875 307.121094 169.21875 311.050781 Z M 169.21875 311.050781 " fill-opacity="1" fill-rule="nonzero"/><path fill="#f7f2f8" d="M 163.609375 415.492188 C 163.609375 419.421875 160.421875 422.609375 156.492188 422.609375 C 152.5625 422.609375 149.375 419.421875 149.375 415.492188 C 149.375 411.5625 152.5625 408.378906 156.492188 408.378906 C 160.421875 408.378906 163.609375 411.5625 163.609375 415.492188 Z M 163.609375 415.492188 " fill-opacity="1" fill-rule="nonzero"/><path fill="#f7f2f8" d="M 656.773438 553.011719 C 656.773438 555.371094 655.605469 557.578125 653.652344 558.902344 C 642.894531 566.1875 634.851562 577.472656 631.480469 590.015625 C 628.507812 601.066406 629.125 613.085938 633.207031 623.773438 C 634.609375 627.445312 632.773438 631.554688 629.101562 632.957031 C 625.429688 634.359375 621.316406 632.523438 619.914062 628.851562 C 614.757812 615.359375 613.984375 600.269531 617.734375 586.320312 C 621.996094 570.476562 632.082031 556.324219 645.667969 547.121094 L 642.542969 553.011719 C 642.542969 549.082031 645.730469 545.898438 649.660156 545.898438 C 653.589844 545.898438 656.773438 549.082031 656.773438 553.011719 Z M 656.773438 553.011719 " fill-opacity="1" fill-rule="nonzero"/><path fill="#f7f2f8" d="M 640.800781 647.683594 C 640.800781 651.613281 637.617188 654.796875 633.6875 654.796875 C 629.757812 654.796875 626.570312 651.613281 626.570312 647.683594 C 626.570312 643.753906 629.757812 640.570312 633.6875 640.570312 C 637.617188 640.570312 640.800781 643.753906 640.800781 647.683594 Z M 640.800781 647.683594 " fill-opacity="1" fill-rule="nonzero"/><path fill="#f7f2f8" d="M 599.464844 381.363281 L 599.128906 379.652344 C 603.144531 389.480469 603.660156 400.664062 600.566406 410.820312 C 598.324219 418.195312 594.222656 424.984375 588.738281 430.402344 C 586.957031 432.160156 584.085938 432.144531 582.328125 430.363281 C 580.570312 428.585938 580.585938 425.714844 582.367188 423.957031 C 586.78125 419.597656 590.089844 414.117188 591.898438 408.183594 C 594.382812 400.019531 593.964844 390.976562 590.738281 383.078125 C 590.515625 382.535156 590.402344 381.953125 590.402344 381.363281 C 590.402344 378.863281 592.429688 376.832031 594.933594 376.832031 C 597.4375 376.832031 599.464844 378.863281 599.464844 381.363281 Z M 599.464844 381.363281 " fill-opacity="1" fill-rule="nonzero"/><path fill="#f7f2f8" d="M 591.167969 364.550781 L 591.167969 364.554688 C 591.167969 367.054688 589.136719 369.082031 586.632812 369.082031 C 584.132812 369.082031 582.101562 367.054688 582.101562 364.554688 L 582.101562 364.550781 C 582.101562 362.050781 584.132812 360.019531 586.632812 360.019531 C 589.136719 360.019531 591.167969 362.050781 591.167969 364.550781 Z M 591.167969 364.550781 " fill-opacity="1" fill-rule="nonzero"/><path fill="#f7f2f8" d="M 118.941406 594.789062 C 118.941406 597.292969 116.914062 599.320312 114.410156 599.320312 C 111.90625 599.320312 109.878906 597.292969 109.878906 594.789062 C 109.878906 592.285156 111.90625 590.257812 114.410156 590.257812 C 116.914062 590.257812 118.941406 592.285156 118.941406 594.789062 Z M 118.941406 594.789062 " fill-opacity="1" fill-rule="nonzero"/><path fill="#f7f2f8" d="M 128.375 600.519531 C 137.085938 605.257812 143.726562 613.589844 146.402344 623.136719 C 148.617188 631.03125 148.121094 639.636719 145.019531 647.226562 C 144.355469 648.851562 142.496094 649.632812 140.867188 648.96875 C 139.238281 648.304688 138.460938 646.445312 139.125 644.816406 C 141.691406 638.539062 142.101562 631.382812 140.269531 624.855469 C 138.058594 616.964844 132.53125 610.027344 125.332031 606.109375 C 123.789062 605.269531 123.214844 603.335938 124.058594 601.792969 C 124.898438 600.25 126.832031 599.675781 128.375 600.519531 Z M 128.375 600.519531 " fill-opacity="1" fill-rule="nonzero"/><path fill="#f7f2f8" d="M 289.105469 612.789062 C 289.105469 614.546875 287.679688 615.972656 285.921875 615.972656 C 284.164062 615.972656 282.738281 614.546875 282.738281 612.789062 C 282.738281 611.03125 284.164062 609.605469 285.921875 609.605469 C 287.679688 609.605469 289.105469 611.03125 289.105469 612.789062 Z M 289.105469 612.789062 " fill-opacity="1" fill-rule="nonzero"/><path fill="#f7f2f8" d="M 294.359375 619.789062 C 294.359375 621.546875 292.933594 622.972656 291.175781 622.972656 C 289.417969 622.972656 287.992188 621.546875 287.992188 619.789062 C 287.992188 618.03125 289.417969 616.605469 291.175781 616.605469 C 292.933594 616.605469 294.359375 618.03125 294.359375 619.789062 Z M 294.359375 619.789062 " fill-opacity="1" fill-rule="nonzero"/><path fill="#f7f2f8" d="M 284.792969 621.253906 C 284.792969 623.011719 283.367188 624.4375 281.609375 624.4375 C 279.851562 624.4375 278.425781 623.011719 278.425781 621.253906 C 278.425781 619.496094 279.851562 618.070312 281.609375 618.070312 C 283.367188 618.070312 284.792969 619.496094 284.792969 621.253906 Z M 284.792969 621.253906 " fill-opacity="1" fill-rule="nonzero"/><path fill="#f7f2f8" d="M 342.15625 676.472656 C 348.390625 676.378906 354.578125 673.804688 359.039062 669.453125 C 363.808594 664.796875 366.574219 658.113281 366.484375 651.453125 C 366.460938 649.695312 367.871094 648.25 369.628906 648.226562 C 371.386719 648.207031 372.832031 649.613281 372.855469 651.371094 C 372.964844 659.773438 369.503906 668.136719 363.484375 674.007812 C 357.859375 679.496094 350.117188 682.71875 342.253906 682.839844 C 340.496094 682.867188 339.050781 681.460938 339.023438 679.703125 C 338.996094 677.945312 340.398438 676.5 342.15625 676.472656 Z M 342.15625 676.472656 " fill-opacity="1" fill-rule="nonzero"/><path fill="#f7f2f8" d="M 373.800781 639.492188 C 373.800781 641.25 372.375 642.675781 370.617188 642.675781 C 368.859375 642.675781 367.433594 641.25 367.433594 639.492188 C 367.433594 637.734375 368.859375 636.308594 370.617188 636.308594 C 372.375 636.308594 373.800781 637.734375 373.800781 639.492188 Z M 373.800781 639.492188 " fill-opacity="1" fill-rule="nonzero"/><path fill="#f7f2f8" d="M 262.554688 94.304688 C 256.023438 94.746094 249.585938 96.59375 243.820312 99.6875 C 237.914062 102.859375 232.707031 107.335938 228.6875 112.699219 C 227.632812 114.105469 225.636719 114.390625 224.226562 113.335938 C 222.820312 112.28125 222.535156 110.289062 223.589844 108.878906 C 228.164062 102.773438 234.082031 97.6875 240.808594 94.078125 C 247.375 90.558594 254.691406 88.453125 262.125 87.953125 C 263.882812 87.832031 265.398438 89.160156 265.519531 90.914062 C 265.636719 92.667969 264.308594 94.1875 262.554688 94.304688 Z M 262.554688 94.304688 " fill-opacity="1" fill-rule="nonzero"/><path fill="#f7f2f8" d="M 226.101562 120.9375 C 226.101562 123.414062 224.09375 125.425781 221.617188 125.425781 C 219.136719 125.425781 217.128906 123.414062 217.128906 120.9375 C 217.128906 118.460938 219.136719 116.453125 221.617188 116.453125 C 224.09375 116.453125 226.101562 118.460938 226.101562 120.9375 Z M 226.101562 120.9375 " fill-opacity="1" fill-rule="nonzero"/><path fill="#f7f2f8" d="M 288.972656 182.316406 L 288.972656 182.320312 C 288.972656 184.796875 286.964844 186.804688 284.484375 186.804688 C 282.007812 186.804688 280 184.796875 280 182.320312 L 280 182.316406 C 280 179.839844 282.007812 177.832031 284.484375 177.832031 C 286.964844 177.832031 288.972656 179.839844 288.972656 182.316406 Z M 288.972656 182.316406 " fill-opacity="1" fill-rule="nonzero"/><path fill="#f7f2f8" d="M 240.183594 905.21875 C 240.183594 907.699219 238.175781 909.707031 235.695312 909.707031 C 233.21875 909.707031 231.210938 907.699219 231.210938 905.21875 C 231.210938 902.742188 233.21875 900.734375 235.695312 900.734375 C 238.175781 900.734375 240.183594 902.742188 240.183594 905.21875 Z M 240.183594 905.21875 " fill-opacity="1" fill-rule="nonzero"/><path fill="#f7f2f8" d="M 719.902344 901.203125 C 719.902344 903.679688 717.894531 905.6875 715.417969 905.6875 C 712.9375 905.6875 710.929688 903.679688 710.929688 901.203125 C 710.929688 898.726562 712.9375 896.714844 715.417969 896.714844 C 717.894531 896.714844 719.902344 898.726562 719.902344 901.203125 Z M 719.902344 901.203125 " fill-opacity="1" fill-rule="nonzero"/><path fill="#f7f2f8" d="M 389.257812 292.589844 C 389.257812 295.066406 387.25 297.074219 384.773438 297.074219 C 382.292969 297.074219 380.285156 295.066406 380.285156 292.589844 C 380.285156 290.113281 382.292969 288.101562 384.773438 288.101562 C 387.25 288.101562 389.257812 290.113281 389.257812 292.589844 Z M 389.257812 292.589844 " fill-opacity="1" fill-rule="nonzero"/><path fill="#f7f2f8" d="M 576.203125 733.480469 C 576.203125 734.828125 575.597656 736.105469 574.550781 736.957031 C 573.507812 737.808594 572.136719 738.144531 570.816406 737.875 C 569.261719 737.558594 567.664062 737.402344 566.058594 737.402344 C 559.558594 737.402344 553.066406 739.953125 548.457031 744.425781 C 544.042969 748.714844 541.292969 754.71875 540.929688 760.859375 C 540.785156 763.335938 538.660156 765.222656 536.1875 765.074219 C 533.714844 764.929688 531.828125 762.808594 531.972656 760.332031 C 532.464844 751.953125 536.183594 743.839844 542.207031 737.992188 C 548.550781 731.832031 557.316406 728.429688 566.058594 728.429688 C 568.246094 728.429688 570.441406 728.644531 572.609375 729.085938 L 567.226562 733.480469 C 567.226562 731.003906 569.234375 728.996094 571.714844 728.996094 C 574.191406 728.996094 576.203125 731.003906 576.203125 733.480469 Z M 576.203125 733.480469 " fill-opacity="1" fill-rule="nonzero"/><path fill="#f7f2f8" d="M 535.277344 775.554688 L 535.277344 775.558594 C 535.277344 778.035156 533.269531 780.042969 530.789062 780.042969 C 528.3125 780.042969 526.304688 778.035156 526.304688 775.558594 L 526.304688 775.554688 C 526.304688 773.078125 528.3125 771.070312 530.789062 771.070312 C 533.269531 771.070312 535.277344 773.078125 535.277344 775.554688 Z M 535.277344 775.554688 " fill-opacity="1" fill-rule="nonzero"/></svg>