<svg xmlns="http://www.w3.org/2000/svg" xmlns:xlink="http://www.w3.org/1999/xlink" width="1080" zoomAndPan="magnify" viewBox="0 0 810 1012.49997" height="1350" preserveAspectRatio="xMidYMid meet" version="1.0"><defs><clipPath id="e7594bf1aa"><path d="M 0.199219 643 L 266 643 L 266 899.554688 L 0.199219 899.554688 Z M 0.199219 643 " clip-rule="nonzero"/></clipPath></defs><path fill="#ffc84f" d="M 44.738281 550.070312 C 44.738281 550.070312 157.179688 523.855469 207.910156 550.070312 L 170.710938 588.96875 C 170.710938 588.96875 218.054688 684.519531 306.828125 718.34375 L 360.9375 695.511719 C 360.9375 695.511719 388.839844 818.964844 360.9375 860.398438 C 427.660156 797.636719 538.484375 724.257812 523.269531 596.574219 C 523.269531 596.574219 776.480469 434.855469 776.480469 166.59375 C 776.480469 137.417969 808.183594 109.484375 795.503906 95.53125 C 782.824219 81.578125 775.847656 120.296875 725.121094 120.296875 C 683.902344 120.296875 428.367188 145.664062 287.597656 379.679688 C 287.59375 379.683594 152.109375 343.746094 44.738281 550.070312 Z M 44.738281 550.070312 " fill-opacity="1" fill-rule="nonzero"/><path fill="#000000" d="M 360.9375 866.566406 C 359.519531 866.566406 358.097656 866.082031 356.945312 865.097656 C 354.554688 863.0625 354.070312 859.5625 355.820312 856.957031 C 378.1875 823.746094 361.761719 730.785156 356.429688 704.105469 L 309.222656 724.023438 C 307.761719 724.640625 306.113281 724.667969 304.632812 724.105469 C 214.636719 689.816406 167.164062 595.695312 165.183594 591.707031 C 164.03125 589.382812 164.457031 586.582031 166.253906 584.707031 L 197.375 552.167969 C 146.203125 533.148438 47.179688 555.832031 46.136719 556.078125 C 43.796875 556.621094 41.34375 555.757812 39.867188 553.851562 C 38.394531 551.949219 38.160156 549.363281 39.269531 547.226562 C 95.660156 438.867188 160.175781 397.402344 204.367188 381.699219 C 243.335938 367.851562 273.464844 370.851562 284.582031 372.773438 C 316.972656 319.894531 357.710938 273.761719 405.714844 235.605469 C 446.058594 203.539062 491.691406 176.9375 541.347656 156.535156 C 622.976562 122.996094 697.25 114.136719 725.121094 114.136719 C 751.730469 114.136719 764.800781 102.976562 774.34375 94.828125 C 781.199219 88.976562 790.582031 80.960938 800.066406 91.390625 C 809.726562 102.019531 802.515625 115.996094 794.886719 130.792969 C 789.144531 141.914062 782.644531 154.523438 782.644531 166.597656 C 782.644531 228.664062 769.152344 290.195312 742.539062 349.480469 C 721.292969 396.804688 691.691406 442.804688 654.558594 486.199219 C 599.460938 550.574219 543.601562 590.269531 529.804688 599.632812 C 540.941406 709.753906 460.910156 780.125 396.460938 836.789062 C 385.324219 846.578125 374.808594 855.820312 365.164062 864.898438 C 363.972656 866.007812 362.453125 866.566406 360.9375 866.566406 Z M 360.9375 689.347656 C 361.902344 689.347656 362.871094 689.574219 363.753906 690.027344 C 365.378906 690.863281 366.546875 692.371094 366.949219 694.152344 C 367.933594 698.488281 387.253906 785.410156 375.914062 838.457031 C 379.953125 834.871094 384.089844 831.234375 388.316406 827.519531 C 451.335938 772.113281 529.761719 703.164062 517.144531 597.304688 C 516.863281 594.953125 517.953125 592.652344 519.945312 591.378906 C 520.574219 590.976562 583.441406 550.402344 645.429688 477.890625 C 702.402344 411.246094 770.316406 303.144531 770.316406 166.59375 C 770.316406 151.523438 777.546875 137.503906 783.929688 125.132812 C 789.539062 114.25 794.84375 103.96875 790.945312 99.679688 C 790.363281 99.042969 789.988281 98.78125 789.828125 98.683594 C 788.441406 98.996094 784.933594 101.992188 782.347656 104.199219 C 772.597656 112.523438 756.273438 126.464844 725.121094 126.464844 C 698.09375 126.464844 625.878906 135.132812 546.03125 167.9375 C 436.855469 212.792969 351.679688 285.105469 292.878906 382.863281 C 291.464844 385.210938 288.675781 386.347656 286.015625 385.640625 C 285.707031 385.5625 252.800781 377.335938 207.667969 393.609375 C 167.378906 408.140625 109.105469 445.625 56.40625 541.332031 C 88.03125 535.21875 168.527344 522.777344 210.742188 544.59375 C 212.46875 545.484375 213.671875 547.140625 213.996094 549.054688 C 214.316406 550.972656 213.714844 552.925781 212.367188 554.332031 L 178.25 590.003906 C 187.96875 607.660156 232.585938 682.269531 306.738281 711.691406 L 358.546875 689.832031 C 359.308594 689.507812 360.121094 689.347656 360.9375 689.347656 Z M 360.9375 689.347656 " fill-opacity="1" fill-rule="nonzero"/><path fill="#e84f37" d="M 6.691406 893.378906 C 6.691406 893.378906 29.519531 754.703125 103.917969 700.585938 C 103.917969 700.585938 49.808594 735.253906 15.988281 729.335938 C 15.988281 729.335938 88.699219 601.652344 173.242188 669.300781 C 257.789062 736.945312 321.199219 780.917969 159.714844 877.316406 C 159.714844 877.316406 198.605469 836.726562 190.996094 802.902344 C 191 802.902344 153.800781 862.9375 6.691406 893.378906 Z M 6.691406 893.378906 " fill-opacity="1" fill-rule="nonzero"/><g clip-path="url(#e7594bf1aa)"><path fill="#000000" d="M 6.691406 899.542969 C 5.113281 899.542969 3.578125 898.941406 2.417969 897.824219 C 0.953125 896.417969 0.277344 894.382812 0.609375 892.378906 C 1.414062 887.480469 18.25 788.558594 69.636719 725.195312 C 52.113281 732.460938 31.539062 738.3125 14.925781 735.410156 C 12.949219 735.0625 11.265625 733.777344 10.410156 731.960938 C 9.558594 730.148438 9.636719 728.027344 10.632812 726.285156 C 12.277344 723.402344 51.511719 655.511719 107.554688 644.78125 C 131.605469 640.179688 155 646.804688 177.097656 664.484375 L 184.277344 670.21875 C 229.359375 706.1875 268.296875 737.25 265.710938 775.457031 C 263.507812 807.996094 230.832031 842.046875 162.878906 882.613281 C 160.230469 884.191406 156.820312 883.570312 154.898438 881.15625 C 152.976562 878.742188 153.132812 875.28125 155.269531 873.050781 C 155.574219 872.734375 181.070312 845.753906 185.257812 819.257812 C 165.511719 839.214844 115.683594 877.128906 7.941406 899.421875 C 7.523438 899.503906 7.105469 899.542969 6.691406 899.542969 Z M 103.914062 694.417969 C 105.882812 694.417969 107.816406 695.359375 109.007812 697.105469 C 110.890625 699.859375 110.238281 703.609375 107.542969 705.570312 C 46.835938 749.730469 21.042969 854.128906 14.515625 885.390625 C 149.132812 855.472656 185.417969 800.195312 185.777344 799.628906 C 187.105469 797.523438 189.589844 796.414062 192.042969 796.835938 C 194.503906 797.261719 196.46875 799.117188 197.015625 801.546875 C 201.109375 819.746094 193.445312 839.183594 184.488281 854.351562 C 229.214844 824.160156 251.832031 797.941406 253.410156 774.617188 C 255.558594 742.859375 218.964844 713.660156 176.589844 679.851562 L 169.398438 674.109375 C 150.257812 658.792969 130.242188 652.996094 109.910156 656.878906 C 70.59375 664.390625 38.992188 705.660156 26.789062 723.816406 C 57.886719 722.523438 100.128906 695.691406 100.597656 695.390625 C 101.621094 694.734375 102.773438 694.417969 103.914062 694.417969 Z M 103.914062 694.417969 " fill-opacity="1" fill-rule="nonzero"/></g><path fill="#7db1e1" d="M 542.015625 245.660156 C 483.0625 245.023438 423.800781 291.273438 421.671875 352.429688 C 419.378906 418.339844 484.375 474.695312 551.71875 466.96875 C 619.375 459.203125 668.328125 389.183594 652.648438 327.195312 C 640.203125 277.980469 590.144531 246.179688 542.015625 245.660156 Z M 542.015625 245.660156 " fill-opacity="1" fill-rule="nonzero"/><path fill="#000000" d="M 539.109375 473.851562 C 508.328125 473.851562 477.902344 461.757812 453.972656 439.65625 C 428.417969 416.050781 414.402344 384.179688 415.511719 352.214844 C 416.578125 321.589844 431.148438 292.808594 456.539062 271.175781 C 480.226562 251 510.875 239.484375 540.820312 239.484375 C 541.242188 239.484375 541.660156 239.488281 542.082031 239.492188 C 567.410156 239.765625 593.046875 248.160156 614.265625 263.125 C 636.664062 278.921875 652.417969 301.136719 658.628906 325.679688 C 666.40625 356.441406 659.492188 390.554688 639.660156 419.273438 C 618.78125 449.507812 586.984375 469.125 552.417969 473.089844 C 547.988281 473.601562 543.546875 473.851562 539.109375 473.851562 Z M 540.882812 251.824219 C 488.84375 251.824219 429.914062 292.929688 427.832031 352.648438 C 426.847656 381.019531 439.421875 409.433594 462.335938 430.601562 C 487.070312 453.449219 519.398438 464.484375 551.015625 460.84375 C 582.042969 457.285156 610.65625 439.578125 629.515625 412.273438 C 647.328125 386.476562 653.582031 356.023438 646.671875 328.707031 C 635.722656 285.40625 590.699219 252.355469 541.945312 251.828125 C 541.59375 251.824219 541.238281 251.824219 540.882812 251.824219 Z M 540.882812 251.824219 " fill-opacity="1" fill-rule="nonzero"/></svg>