<svg xmlns="http://www.w3.org/2000/svg" xmlns:xlink="http://www.w3.org/1999/xlink" width="1080" zoomAndPan="magnify" viewBox="0 0 810 1012.49997" height="1350" preserveAspectRatio="xMidYMid meet" version="1.0"><defs><clipPath id="6eec7f7aa2"><path d="M 0.199219 129 L 548 129 L 548 542 L 0.199219 542 Z M 0.199219 129 " clip-rule="nonzero"/></clipPath><clipPath id="557d436d04"><path d="M 146 323 L 809.800781 323 L 809.800781 884.882812 L 146 884.882812 Z M 146 323 " clip-rule="nonzero"/></clipPath></defs><path fill="#4ccd99" d="M 530.183594 526.117188 C 525.414062 530.269531 517.210938 533.21875 508.519531 528.988281 C 311.734375 433.53125 149.277344 369.371094 11.890625 332.894531 C 10.914062 332.640625 10.710938 331.949219 10.683594 331.410156 C 10.683594 330.871094 10.839844 330.152344 11.789062 329.84375 C 198.652344 267.8125 390.71875 202.21875 505.90625 142.007812 C 509.058594 140.367188 512.1875 139.675781 515.109375 139.675781 C 520.234375 139.675781 524.773438 141.777344 527.902344 144.417969 C 532.824219 148.570312 536.976562 156.335938 533.976562 165.667969 L 480.578125 330.589844 L 480.167969 332.410156 L 536.027344 505.070312 C 539 514.25 534.953125 521.964844 530.183594 526.117188 Z M 530.183594 526.117188 " fill-opacity="1" fill-rule="nonzero"/><g clip-path="url(#6eec7f7aa2)"><path fill="#231f20" d="M 545.796875 501.917969 L 490.855469 332.152344 L 543.71875 168.820312 C 547.566406 156.976562 544.027344 144.621094 534.515625 136.597656 C 524.980469 128.550781 512.1875 127.140625 501.136719 132.933594 C 386.644531 192.785156 195.011719 258.226562 8.558594 320.105469 C 3.53125 321.769531 0.277344 326.4375 0.429688 331.714844 C 0.609375 336.996094 4.148438 341.457031 9.25 342.789062 C 146.019531 379.113281 307.863281 443.039062 504.035156 538.214844 C 508.316406 540.292969 512.828125 541.316406 517.289062 541.316406 C 524.335938 541.316406 531.257812 538.777344 536.925781 533.859375 C 546.15625 525.808594 549.5625 513.582031 545.796875 501.917969 Z M 530.183594 526.117188 C 525.414062 530.269531 517.210938 533.21875 508.519531 528.988281 C 311.734375 433.53125 149.277344 369.371094 11.890625 332.894531 C 10.914062 332.640625 10.710938 331.949219 10.683594 331.410156 C 10.683594 330.871094 10.839844 330.152344 11.789062 329.84375 C 198.652344 267.8125 390.71875 202.21875 505.90625 142.007812 C 509.058594 140.367188 512.1875 139.675781 515.109375 139.675781 C 520.234375 139.675781 524.773438 141.777344 527.902344 144.417969 C 532.824219 148.570312 536.976562 156.335938 533.976562 165.667969 L 480.578125 330.589844 L 480.167969 332.410156 L 536.027344 505.070312 C 539.003906 514.25 534.953125 521.964844 530.183594 526.117188 Z M 530.183594 526.117188 " fill-opacity="1" fill-rule="nonzero"/></g><g clip-path="url(#557d436d04)"><path fill="#007f73" d="M 500.828125 396.925781 C 384.773438 357.65625 266.769531 334.691406 146.351562 331.972656 C 274.28125 322.464844 393.515625 317.925781 479.910156 332.203125 L 500.828125 396.902344 Z M 541.230469 368.089844 C 545.230469 367.808594 549.230469 367.652344 553.101562 367.652344 C 553.28125 367.652344 553.433594 367.652344 553.664062 367.652344 C 556.484375 367.652344 558.792969 365.371094 558.792969 362.554688 C 558.792969 359.734375 556.511719 357.425781 553.691406 357.402344 C 549.382812 357.402344 544.949219 357.554688 540.488281 357.863281 C 537.667969 358.066406 535.539062 360.527344 535.746094 363.347656 C 535.949219 366.039062 538.207031 368.089844 540.847656 368.089844 C 540.976562 368.089844 541.105469 368.089844 541.230469 368.089844 Z M 726.53125 883.953125 C 729.351562 883.671875 731.402344 881.160156 731.121094 878.339844 C 730.839844 875.519531 728.351562 873.46875 725.507812 873.75 C 717.226562 874.570312 708.871094 874.722656 700.742188 874.1875 C 698 874.03125 695.488281 876.132812 695.28125 878.980469 C 695.101562 881.800781 697.230469 884.234375 700.074219 884.4375 C 703.484375 884.671875 706.945312 884.773438 710.382812 884.773438 C 715.714844 884.773438 721.148438 884.515625 726.507812 883.976562 Z M 680.105469 876.671875 C 680.773438 873.929688 679.054688 871.160156 676.3125 870.496094 C 671.210938 869.265625 666.082031 867.753906 661.082031 865.957031 C 658.3125 864.957031 655.519531 863.882812 652.800781 862.726562 C 650.1875 861.625 647.1875 862.832031 646.085938 865.445312 C 644.984375 868.058594 646.1875 871.058594 648.804688 872.160156 C 651.726562 873.390625 654.699219 874.570312 657.648438 875.621094 C 662.980469 877.519531 668.464844 879.160156 673.925781 880.464844 C 674.335938 880.570312 674.722656 880.621094 675.132812 880.621094 C 677.4375 880.621094 679.542969 879.03125 680.105469 876.699219 Z M 752.527344 879.363281 C 760.910156 877.238281 769.320312 874.492188 777.523438 871.160156 C 780.136719 870.109375 781.421875 867.113281 780.34375 864.496094 C 779.265625 861.882812 776.292969 860.601562 773.679688 861.675781 C 765.882812 864.828125 757.9375 867.445312 749.988281 869.445312 C 747.246094 870.136719 745.582031 872.929688 746.273438 875.671875 C 746.863281 878.003906 748.9375 879.542969 751.246094 879.542969 C 751.65625 879.542969 752.09375 879.492188 752.503906 879.390625 Z M 632.421875 858.34375 C 633.90625 855.933594 633.164062 852.78125 630.753906 851.296875 C 623.730469 846.9375 616.960938 842.015625 610.65625 836.683594 C 608.503906 834.863281 605.246094 835.121094 603.425781 837.273438 C 601.605469 839.429688 601.863281 842.65625 604.015625 844.503906 C 610.707031 850.167969 617.886719 855.398438 625.34375 860.011719 C 626.191406 860.523438 627.113281 860.78125 628.039062 860.78125 C 629.753906 860.78125 631.421875 859.910156 632.394531 858.34375 Z M 592.480469 826.484375 C 594.605469 824.636719 594.839844 821.382812 592.992188 819.253906 C 587.480469 812.898438 582.53125 806.207031 578.328125 799.3125 C 576.839844 796.902344 573.6875 796.132812 571.277344 797.621094 C 568.867188 799.105469 568.097656 802.261719 569.585938 804.667969 C 574.097656 812.027344 579.355469 819.203125 585.25 825.96875 C 586.277344 827.125 587.6875 827.738281 589.121094 827.738281 C 590.300781 827.738281 591.503906 827.328125 592.480469 826.484375 Z M 564.484375 783.828125 C 567.152344 782.855469 568.484375 779.882812 567.507812 777.242188 C 564.585938 769.398438 562.585938 761.425781 561.5625 753.582031 C 561.203125 750.761719 558.613281 748.816406 555.820312 749.175781 C 553.023438 749.53125 551.023438 752.121094 551.410156 754.914062 C 552.539062 763.554688 554.71875 772.269531 557.894531 780.832031 C 558.664062 782.90625 560.613281 784.164062 562.714844 784.164062 C 563.304688 784.164062 563.921875 784.058594 564.511719 783.828125 Z M 561.5625 729.4375 C 562.691406 721.59375 564.945312 714.058594 568.457031 706.445312 C 569.636719 703.882812 568.507812 700.832031 565.945312 699.652344 C 563.382812 698.472656 560.332031 699.601562 559.152344 702.164062 C 555.230469 710.699219 552.691406 719.132812 551.4375 728 C 551.027344 730.796875 552.972656 733.410156 555.792969 733.792969 C 556.050781 733.820312 556.28125 733.847656 556.539062 733.847656 C 559.050781 733.847656 561.230469 732 561.613281 729.4375 Z M 581.070312 685.375 C 586.019531 678.53125 591.554688 671.8125 596.785156 665.609375 C 598.605469 663.457031 598.324219 660.203125 596.171875 658.382812 C 594.019531 656.5625 590.761719 656.84375 588.941406 658.996094 C 583.582031 665.355469 577.917969 672.222656 572.765625 679.351562 C 571.097656 681.65625 571.613281 684.859375 573.917969 686.5 C 574.816406 687.167969 575.867188 687.476562 576.917969 687.476562 C 578.507812 687.476562 580.070312 686.734375 581.070312 685.347656 Z M 613.320312 645.949219 C 619.550781 638.363281 624.578125 631.800781 629.140625 625.316406 C 630.78125 623.007812 630.214844 619.804688 627.882812 618.164062 C 625.578125 616.523438 622.371094 617.085938 620.730469 619.421875 C 616.320312 625.699219 611.449219 632.058594 605.375 639.464844 C 603.582031 641.644531 603.886719 644.875 606.09375 646.667969 C 607.042969 647.4375 608.195312 647.820312 609.347656 647.820312 C 610.835938 647.820312 612.296875 647.179688 613.320312 645.949219 Z M 643.035156 603.144531 C 647.265625 595.429688 651.035156 587.429688 654.1875 579.40625 C 655.238281 576.765625 653.929688 573.792969 651.289062 572.769531 C 648.648438 571.742188 645.675781 573.023438 644.648438 575.664062 C 641.648438 583.304688 638.0625 590.890625 634.035156 598.222656 C 632.675781 600.707031 633.574219 603.808594 636.0625 605.195312 C 636.855469 605.628906 637.703125 605.835938 638.523438 605.835938 C 640.34375 605.835938 642.085938 604.859375 643.007812 603.167969 Z M 662.261719 554.441406 C 663.878906 548.160156 665.234375 541.597656 666.3125 534.960938 C 666.570312 533.421875 666.902344 531.347656 667.285156 528.808594 C 667.695312 526.015625 665.773438 523.398438 662.953125 522.988281 C 660.160156 522.578125 657.542969 524.5 657.132812 527.320312 C 656.777344 529.78125 656.441406 531.808594 656.1875 533.320312 C 655.136719 539.652344 653.851562 545.929688 652.316406 551.929688 C 651.621094 554.671875 653.261719 557.464844 656.007812 558.15625 C 656.441406 558.261719 656.851562 558.3125 657.289062 558.3125 C 659.570312 558.3125 661.671875 556.773438 662.261719 554.441406 Z M 669.953125 502.84375 C 670.210938 498.175781 670.335938 493.511719 670.335938 488.972656 C 670.335938 484.796875 670.234375 480.644531 670.003906 476.671875 C 669.851562 473.851562 667.390625 471.671875 664.621094 471.824219 C 661.800781 471.980469 659.621094 474.390625 659.773438 477.210938 C 659.980469 481.003906 660.082031 484.976562 660.082031 488.972656 C 660.082031 493.332031 659.953125 497.816406 659.722656 502.277344 C 659.570312 505.097656 661.722656 507.53125 664.570312 507.6875 C 664.671875 507.6875 664.75 507.6875 664.851562 507.6875 C 667.542969 507.6875 669.824219 505.585938 669.976562 502.84375 Z M 662.824219 456.523438 C 665.59375 455.984375 667.414062 453.292969 666.875 450.523438 C 665.109375 441.449219 662.671875 432.863281 659.597656 424.996094 C 658.570312 422.355469 655.597656 421.046875 652.957031 422.097656 C 650.316406 423.125 649.007812 426.097656 650.058594 428.738281 C 652.90625 436.015625 655.1875 443.988281 656.828125 452.472656 C 657.3125 454.933594 659.441406 456.625 661.851562 456.625 C 662.183594 456.625 662.492188 456.601562 662.824219 456.523438 Z M 645.804688 408.460938 C 648.136719 406.847656 648.699219 403.640625 647.058594 401.308594 C 641.828125 393.851562 635.675781 387.1875 628.78125 381.546875 C 628.78125 381.546875 628.652344 381.445312 628.574219 381.394531 C 626.292969 379.703125 623.089844 380.164062 621.398438 382.417969 C 619.808594 384.546875 620.117188 387.492188 622.011719 389.261719 L 622.269531 389.492188 C 628.449219 394.542969 633.960938 400.488281 638.652344 407.179688 C 639.652344 408.617188 641.238281 409.359375 642.855469 409.359375 C 643.878906 409.359375 644.878906 409.050781 645.777344 408.4375 Z M 608.375 374.320312 C 609.503906 371.730469 608.324219 368.703125 605.734375 367.578125 C 597.835938 364.117188 589.222656 361.503906 580.148438 359.808594 C 577.355469 359.296875 574.6875 361.117188 574.175781 363.910156 C 573.664062 366.707031 575.480469 369.371094 578.277344 369.882812 C 586.609375 371.449219 594.480469 373.804688 601.632812 376.957031 C 602.296875 377.242188 602.992188 377.394531 603.683594 377.394531 C 605.65625 377.394531 607.527344 376.242188 608.375 374.320312 Z M 799.058594 855.0625 C 804.851562 851.730469 808.59375 849.144531 809.902344 848.21875 " fill-opacity="1" fill-rule="nonzero"/></g></svg>