<svg xmlns="http://www.w3.org/2000/svg" xmlns:xlink="http://www.w3.org/1999/xlink" width="1080" zoomAndPan="magnify" viewBox="0 0 810 1012.49997" height="1350" preserveAspectRatio="xMidYMid meet" version="1.0"><defs><clipPath id="04e4ee9606"><path d="M 206.183594 0 L 603.488281 0 L 603.488281 1012 L 206.183594 1012 Z M 206.183594 0 " clip-rule="nonzero"/></clipPath></defs><path fill="#f9e0cf" d="M 589.304688 749.457031 L 549.140625 805.554688 L 465.515625 922.359375 C 465.492188 922.394531 465.464844 922.425781 465.441406 922.460938 L 463.648438 924.964844 L 346.023438 924.964844 L 339.992188 916.539062 C 339.976562 916.515625 339.960938 916.496094 339.945312 916.472656 L 260.539062 805.554688 L 220.371094 749.453125 C 220.855469 729.128906 232.207031 710.71875 250.242188 701.167969 C 258.253906 696.921875 267.3125 694.679688 276.4375 694.679688 C 285.066406 694.679688 293.34375 696.589844 301.03125 700.351562 C 320.457031 709.851562 332.523438 729.1875 332.523438 750.8125 C 332.523438 753.191406 334.449219 755.117188 336.824219 755.117188 L 344.453125 755.117188 C 346.382812 755.117188 348.015625 753.84375 348.558594 752.09375 C 348.6875 751.6875 348.753906 751.257812 348.753906 750.8125 C 348.753906 728.308594 362.113281 708.042969 382.785156 699.1875 C 389.761719 696.195312 397.183594 694.679688 404.839844 694.679688 C 411.875 694.679688 418.734375 695.96875 425.226562 698.503906 C 446.910156 706.976562 460.921875 727.507812 460.921875 750.8125 C 460.921875 753.191406 462.847656 755.117188 465.222656 755.117188 L 472.851562 755.117188 C 475.230469 755.117188 477.152344 753.191406 477.152344 750.8125 C 477.152344 726.050781 493.015625 704.5 516.625 697.183594 C 521.976562 695.523438 527.566406 694.679688 533.238281 694.679688 C 538.292969 694.679688 543.300781 695.351562 548.121094 696.679688 C 571.941406 703.222656 588.710938 724.808594 589.304688 749.457031 Z M 589.304688 749.457031 " fill-opacity="1" fill-rule="nonzero"/><path fill="#ffe36e" d="M 589.320312 308.785156 L 589.320312 718.527344 C 587.867188 716.011719 586.238281 713.578125 584.429688 711.238281 C 575.886719 700.179688 563.796875 692.0625 550.398438 688.378906 C 544.835938 686.851562 539.0625 686.074219 533.238281 686.074219 C 526.703125 686.074219 520.257812 687.046875 514.078125 688.960938 C 507.5625 690.984375 501.421875 694.019531 495.835938 697.984375 C 490.328125 701.898438 485.480469 706.632812 481.429688 712.046875 C 474.609375 721.160156 470.394531 731.683594 469.035156 742.839844 C 467.761719 732.445312 464.003906 722.558594 457.972656 713.882812 C 450.589844 703.265625 440.347656 695.175781 428.355469 690.488281 C 420.859375 687.558594 412.949219 686.074219 404.839844 686.074219 C 396.011719 686.074219 387.453125 687.824219 379.402344 691.273438 C 358.015625 700.433594 343.421875 720.183594 340.640625 742.882812 C 339.472656 733.351562 336.207031 724.203125 331.023438 716.066406 C 324.597656 705.972656 315.53125 697.863281 304.808594 692.617188 C 295.933594 688.277344 286.386719 686.074219 276.4375 686.074219 C 265.914062 686.074219 255.464844 688.664062 246.222656 693.558594 C 235.191406 699.402344 226.328125 708.117188 220.355469 718.515625 L 220.355469 308.785156 Z M 589.320312 308.785156 " fill-opacity="1" fill-rule="nonzero"/><path fill="#bcbec0" d="M 214.9375 132.34375 L 594.738281 132.34375 L 594.738281 300.175781 L 214.9375 300.175781 Z M 214.9375 132.34375 " fill-opacity="1" fill-rule="nonzero"/><path fill="#ff83c1" d="M 589.320312 27.34375 L 589.320312 123.738281 L 220.355469 123.738281 L 220.355469 27.34375 C 220.355469 17.011719 228.75 8.605469 239.074219 8.605469 L 570.601562 8.605469 C 580.925781 8.605469 589.320312 17.011719 589.320312 27.34375 Z M 589.320312 27.34375 " fill-opacity="1" fill-rule="nonzero"/><path fill="#ffed9f" d="M 589.304688 341.359375 L 589.304688 672.949219 L 584.054688 672.949219 C 578.605469 672.949219 574.195312 667.269531 574.195312 660.257812 L 574.195312 354.050781 C 574.195312 347.042969 578.605469 341.359375 584.054688 341.359375 Z M 589.304688 341.359375 " fill-opacity="1" fill-rule="nonzero"/><path fill="#ffed9f" d="M 220.355469 341.359375 L 220.355469 672.949219 L 225.609375 672.949219 C 231.066406 672.949219 235.484375 667.269531 235.484375 660.257812 L 235.484375 354.050781 C 235.484375 347.042969 231.066406 341.359375 225.609375 341.359375 Z M 220.355469 341.359375 " fill-opacity="1" fill-rule="nonzero"/><g clip-path="url(#04e4ee9606)"><path fill="#231f20" d="M 599.039062 123.738281 L 597.921875 123.738281 L 597.921875 27.34375 C 597.921875 12.265625 585.664062 0 570.601562 0 L 239.074219 0 C 224.011719 0 211.753906 12.265625 211.753906 27.34375 L 211.753906 123.738281 L 210.640625 123.738281 C 208.261719 123.738281 206.339844 125.664062 206.339844 128.042969 L 206.339844 304.480469 C 206.339844 306.859375 208.261719 308.785156 210.640625 308.785156 L 211.753906 308.785156 L 211.753906 750.8125 C 211.753906 750.835938 211.757812 750.855469 211.757812 750.878906 C 211.757812 750.929688 211.761719 750.980469 211.761719 751.03125 C 211.765625 751.089844 211.769531 751.148438 211.773438 751.207031 C 211.777344 751.238281 211.78125 751.265625 211.78125 751.296875 C 211.785156 751.335938 211.792969 751.378906 211.800781 751.421875 C 211.808594 751.476562 211.816406 751.535156 211.828125 751.589844 C 211.835938 751.632812 211.84375 751.675781 211.851562 751.71875 C 211.859375 751.742188 211.863281 751.769531 211.867188 751.792969 C 211.882812 751.855469 211.902344 751.914062 211.917969 751.972656 C 211.929688 752.023438 211.945312 752.070312 211.960938 752.121094 C 211.960938 752.125 211.960938 752.128906 211.964844 752.132812 C 211.976562 752.183594 211.996094 752.230469 212.015625 752.277344 C 212.039062 752.335938 212.058594 752.394531 212.082031 752.449219 C 212.09375 752.476562 212.101562 752.5 212.113281 752.523438 C 212.132812 752.5625 212.152344 752.601562 212.167969 752.640625 C 212.195312 752.695312 212.21875 752.746094 212.246094 752.796875 C 212.265625 752.832031 212.285156 752.871094 212.304688 752.910156 C 212.320312 752.933594 212.335938 752.960938 212.351562 752.988281 C 212.378906 753.039062 212.414062 753.085938 212.441406 753.136719 C 212.472656 753.179688 212.5 753.222656 212.527344 753.261719 C 212.539062 753.277344 212.550781 753.296875 212.5625 753.316406 L 253.550781 810.5625 C 253.550781 810.566406 253.550781 810.566406 253.550781 810.566406 L 332.925781 921.4375 C 332.941406 921.457031 332.957031 921.480469 332.972656 921.503906 L 393.632812 1006.230469 C 393.953125 1006.675781 394.296875 1007.105469 394.652344 1007.496094 C 397.273438 1010.382812 400.945312 1011.996094 404.832031 1011.996094 C 405.101562 1011.996094 405.375 1011.988281 405.644531 1011.972656 C 409.820312 1011.730469 413.613281 1009.636719 416.050781 1006.234375 L 472.367188 927.570312 C 472.390625 927.539062 472.414062 927.503906 472.4375 927.472656 L 556.128906 810.566406 L 597.117188 753.320312 C 597.128906 753.304688 597.136719 753.289062 597.144531 753.273438 C 597.195312 753.203125 597.242188 753.128906 597.289062 753.054688 C 597.316406 753.003906 597.34375 752.957031 597.375 752.910156 C 597.414062 752.835938 597.449219 752.761719 597.488281 752.6875 C 597.511719 752.632812 597.539062 752.582031 597.566406 752.527344 C 597.59375 752.460938 597.621094 752.386719 597.644531 752.316406 C 597.667969 752.253906 597.695312 752.191406 597.714844 752.128906 C 597.734375 752.0625 597.75 752 597.769531 751.933594 C 597.789062 751.859375 597.808594 751.789062 597.824219 751.714844 C 597.835938 751.65625 597.847656 751.597656 597.855469 751.539062 C 597.871094 751.457031 597.882812 751.375 597.894531 751.289062 C 597.898438 751.238281 597.902344 751.179688 597.90625 751.125 C 597.914062 751.035156 597.917969 750.949219 597.917969 750.863281 C 597.917969 750.84375 597.921875 750.828125 597.921875 750.808594 L 597.921875 308.785156 L 599.039062 308.785156 C 601.414062 308.785156 603.335938 306.859375 603.335938 304.480469 L 603.335938 128.042969 C 603.339844 125.664062 601.414062 123.738281 599.039062 123.738281 Z M 549.140625 805.554688 L 465.515625 922.359375 C 465.492188 922.394531 465.464844 922.425781 465.441406 922.460938 L 463.648438 924.964844 L 346.027344 924.964844 L 339.992188 916.539062 C 339.976562 916.515625 339.960938 916.496094 339.945312 916.472656 L 260.539062 805.554688 L 220.371094 749.453125 C 220.855469 729.128906 232.207031 710.71875 250.242188 701.167969 C 258.253906 696.925781 267.3125 694.679688 276.4375 694.679688 C 285.066406 694.679688 293.34375 696.589844 301.03125 700.351562 C 320.457031 709.851562 332.523438 729.1875 332.523438 750.8125 C 332.523438 753.191406 334.449219 755.117188 336.824219 755.117188 L 344.453125 755.117188 C 346.382812 755.117188 348.015625 753.84375 348.558594 752.09375 C 348.683594 751.6875 348.753906 751.257812 348.753906 750.8125 C 348.753906 728.308594 362.113281 708.042969 382.785156 699.1875 C 389.761719 696.199219 397.183594 694.679688 404.839844 694.679688 C 411.875 694.679688 418.734375 695.96875 425.226562 698.503906 C 446.914062 706.976562 460.921875 727.507812 460.921875 750.8125 C 460.921875 753.191406 462.847656 755.117188 465.222656 755.117188 L 472.851562 755.117188 C 475.230469 755.117188 477.152344 753.191406 477.152344 750.8125 C 477.152344 726.050781 493.015625 704.5 516.625 697.183594 C 521.976562 695.523438 527.566406 694.679688 533.238281 694.679688 C 538.292969 694.679688 543.300781 695.351562 548.121094 696.679688 C 571.945312 703.222656 588.710938 724.808594 589.304688 749.457031 Z M 584.429688 711.238281 C 575.886719 700.179688 563.796875 692.0625 550.398438 688.382812 C 544.835938 686.851562 539.0625 686.078125 533.238281 686.078125 C 526.703125 686.078125 520.257812 687.050781 514.078125 688.964844 C 507.5625 690.984375 501.421875 694.019531 495.835938 697.988281 C 490.324219 701.902344 485.476562 706.632812 481.425781 712.046875 C 474.609375 721.160156 470.390625 731.683594 469.03125 742.84375 C 467.761719 732.449219 464 722.5625 457.96875 713.882812 C 450.589844 703.265625 440.347656 695.175781 428.351562 690.488281 C 420.859375 687.558594 412.949219 686.074219 404.832031 686.074219 C 396.007812 686.074219 387.449219 687.824219 379.398438 691.273438 C 358.011719 700.433594 343.417969 720.183594 340.632812 742.882812 C 339.46875 733.351562 336.203125 724.203125 331.019531 716.0625 C 324.59375 705.972656 315.527344 697.863281 304.804688 692.617188 C 295.929688 688.273438 286.382812 686.074219 276.433594 686.074219 C 265.910156 686.074219 255.460938 688.660156 246.21875 693.558594 C 235.1875 699.398438 226.328125 708.117188 220.351562 718.511719 L 220.351562 308.785156 L 589.316406 308.785156 L 589.316406 718.527344 C 587.867188 716.011719 586.238281 713.578125 584.429688 711.238281 Z M 216.054688 132.34375 L 593.621094 132.34375 C 593.625 132.34375 593.625 132.34375 593.628906 132.34375 L 594.738281 132.34375 L 594.738281 300.175781 L 214.9375 300.175781 L 214.9375 132.34375 L 216.046875 132.34375 C 216.050781 132.34375 216.050781 132.34375 216.054688 132.34375 Z M 220.355469 27.34375 C 220.355469 17.011719 228.75 8.605469 239.074219 8.605469 L 570.601562 8.605469 C 580.925781 8.605469 589.320312 17.011719 589.320312 27.34375 L 589.320312 123.738281 L 220.355469 123.738281 Z M 220.355469 27.34375 " fill-opacity="1" fill-rule="nonzero"/></g><path fill="#ffed9f" d="M 347.390625 669.652344 L 333.886719 669.652344 C 326.882812 669.652344 321.207031 663.972656 321.207031 656.964844 L 321.207031 350.753906 C 321.207031 343.746094 326.882812 338.066406 333.886719 338.066406 L 347.390625 338.066406 C 354.390625 338.066406 360.070312 343.746094 360.070312 350.753906 L 360.070312 656.964844 C 360.070312 663.972656 354.390625 669.652344 347.390625 669.652344 Z M 347.390625 669.652344 " fill-opacity="1" fill-rule="nonzero"/><path fill="#ffed9f" d="M 475.789062 672.949219 L 462.285156 672.949219 C 455.285156 672.949219 449.605469 667.265625 449.605469 660.257812 L 449.605469 354.050781 C 449.605469 347.042969 455.285156 341.359375 462.285156 341.359375 L 475.789062 341.359375 C 482.792969 341.359375 488.46875 347.042969 488.46875 354.050781 L 488.46875 660.257812 C 488.46875 667.269531 482.792969 672.949219 475.789062 672.949219 Z M 475.789062 672.949219 " fill-opacity="1" fill-rule="nonzero"/><path fill="#cccccc" d="M 582.457031 159.941406 L 582.457031 166.699219 C 582.457031 173.160156 577.21875 178.402344 570.765625 178.402344 L 238.914062 178.402344 C 232.457031 178.402344 227.222656 173.160156 227.222656 166.699219 L 227.222656 159.941406 C 227.222656 153.480469 232.457031 148.242188 238.914062 148.242188 L 570.765625 148.242188 C 577.21875 148.238281 582.457031 153.476562 582.457031 159.941406 Z M 582.457031 159.941406 " fill-opacity="1" fill-rule="nonzero"/><path fill="#cccccc" d="M 581.003906 212.878906 L 581.003906 219.640625 C 581.003906 226.101562 575.769531 231.339844 569.3125 231.339844 L 237.460938 231.339844 C 231.007812 231.339844 225.773438 226.101562 225.773438 219.640625 L 225.773438 212.878906 C 225.773438 206.417969 231.007812 201.179688 237.460938 201.179688 L 569.3125 201.179688 C 575.769531 201.179688 581.003906 206.417969 581.003906 212.878906 Z M 581.003906 212.878906 " fill-opacity="1" fill-rule="nonzero"/><path fill="#cccccc" d="M 581.003906 265.820312 L 581.003906 272.578125 C 581.003906 279.042969 575.769531 284.28125 569.3125 284.28125 L 237.460938 284.28125 C 231.007812 284.28125 225.773438 279.042969 225.773438 272.578125 L 225.773438 265.820312 C 225.773438 259.359375 231.007812 254.121094 237.460938 254.121094 L 569.3125 254.121094 C 575.769531 254.121094 581.003906 259.359375 581.003906 265.820312 Z M 581.003906 265.820312 " fill-opacity="1" fill-rule="nonzero"/><path fill="#da1c5c" d="M 455.238281 587.828125 C 455.238281 600.667969 450.113281 612.316406 441.804688 620.828125 C 433.234375 629.59375 421.285156 635.035156 408.066406 635.035156 C 394.847656 635.035156 382.898438 629.59375 374.332031 620.828125 C 366.019531 612.316406 360.898438 600.671875 360.898438 587.828125 Z M 455.238281 587.828125 " fill-opacity="1" fill-rule="nonzero"/><path fill="#93093e" d="M 441.804688 620.828125 C 433.234375 629.59375 421.285156 635.035156 408.066406 635.035156 C 394.847656 635.035156 382.898438 629.59375 374.332031 620.828125 C 382.898438 612.058594 394.84375 606.613281 408.066406 606.613281 C 421.289062 606.613281 433.238281 612.058594 441.804688 620.828125 Z M 441.804688 620.828125 " fill-opacity="1" fill-rule="nonzero"/><path stroke-linecap="butt" transform="matrix(0.152015, -0.152146, 0.152021, 0.152141, -29.082426, 322.48674)" fill-opacity="1" fill="#050505" fill-rule="nonzero" stroke-linejoin="miter" d="M 1391.740577 2071.190839 C 1391.742262 2075.454608 1391.538454 2079.692603 1391.116325 2083.943347 C 1390.707034 2088.181253 1390.09225 2092.393386 1389.246288 2096.579735 C 1388.413163 2100.753246 1387.387383 2104.888146 1386.143252 2108.958739 C 1384.911969 2113.04218 1383.475172 2117.048477 1381.858548 2120.97764 C 1380.216238 2124.906793 1378.3941 2128.758812 1376.379287 2132.520849 C 1374.377311 2136.270049 1372.182659 2139.929268 1369.821007 2143.472831 C 1367.459355 2147.016393 1364.917855 2150.431452 1362.222192 2153.718018 C 1359.513691 2157.01742 1356.663865 2160.175493 1353.647029 2163.192224 C 1350.64303 2166.196118 1347.47202 2169.058671 1344.18536 2171.75422 C 1340.885863 2174.462605 1337.470716 2177.003986 1333.927071 2179.365515 C 1330.383425 2181.727043 1326.736968 2183.90873 1322.97486 2185.923412 C 1319.212752 2187.938094 1315.373507 2189.74726 1311.444298 2191.389433 C 1307.50224 2193.018757 1303.495893 2194.455414 1299.412409 2195.686555 C 1295.341773 2196.930544 1291.206837 2197.95618 1287.033296 2198.789159 C 1282.859756 2199.622138 1278.634764 2200.249612 1274.396843 2200.658755 C 1270.171769 2201.080746 1265.908082 2201.284396 1261.657161 2201.29541 C 1257.393392 2201.293577 1253.142379 2201.073423 1248.904133 2200.660635 C 1244.665888 2200.247847 1240.440398 2199.616739 1236.266198 2198.78017 C 1232.07916 2197.956438 1227.969098 2196.927256 1223.884639 2195.692603 C 1219.813018 2194.445113 1215.792697 2193.017847 1211.862198 2191.39798 C 1207.93169 2189.752427 1204.078166 2187.92711 1200.327312 2185.92204 C 1196.563621 2183.929806 1192.90259 2181.732135 1189.369915 2179.354721 C 1185.824403 2176.990144 1182.407256 2174.47151 1179.105617 2171.760286 C 1175.816826 2169.06191 1172.669238 2166.196639 1169.650017 2163.177312 C 1166.643643 2160.170834 1163.778482 2157.023146 1161.080221 2153.734261 C 1158.369112 2150.432527 1155.850597 2147.015293 1153.486144 2143.469698 C 1151.108853 2139.93694 1148.911309 2136.275832 1146.90637 2132.524909 C 1144.914268 2128.761149 1143.089085 2124.907561 1141.44367 2120.976995 C 1139.823939 2117.04644 1138.383976 2113.038906 1137.149466 2108.954404 C 1135.914955 2104.869903 1134.873069 2100.746956 1134.049483 2096.55989 C 1133.21306 2092.385661 1132.594947 2088.172998 1132.169469 2083.947574 C 1131.756829 2079.709314 1131.549661 2075.445457 1131.547976 2071.181688 C 1131.559139 2066.930767 1131.7501 2062.679924 1132.185076 2058.442028 C 1132.594367 2054.204122 1133.221989 2049.979151 1134.055113 2045.80564 C 1134.888238 2041.632129 1135.914018 2037.497229 1137.158149 2033.426636 C 1138.389432 2029.343195 1139.826229 2025.336898 1141.455691 2021.394897 C 1143.072316 2017.465734 1144.907301 2013.626563 1146.909267 2009.851678 C 1148.911243 2006.102478 1151.105894 2002.443259 1153.480394 1998.912544 C 1155.842046 1995.368982 1158.383546 1991.953923 1161.092047 1988.65452 C 1163.78771 1985.367955 1166.637536 1982.209882 1169.654372 1979.193151 C 1172.671209 1976.17642 1175.829381 1973.326704 1179.116041 1970.631155 C 1182.415538 1967.92277 1185.830685 1965.381389 1189.374331 1963.01986 C 1192.905128 1960.645484 1196.564423 1958.45096 1200.313693 1956.449115 C 1204.075801 1954.434433 1207.915046 1952.625267 1211.857104 1950.995942 C 1215.799161 1949.366618 1219.805508 1947.929961 1223.888992 1946.69882 C 1227.959629 1945.454831 1232.081717 1944.416347 1236.268105 1943.596216 C 1240.441645 1942.763237 1244.666637 1942.135763 1248.891711 1941.713772 C 1253.142469 1941.291791 1257.380472 1941.088131 1261.644241 1941.089965 C 1265.908009 1941.091798 1270.171859 1941.299115 1274.410105 1941.711903 C 1278.635514 1942.137528 1282.848155 1942.755788 1287.022355 1943.592357 C 1291.209393 1944.416089 1295.332303 1945.458119 1299.416762 1946.692772 C 1303.50122 1947.927425 1307.495856 1949.35468 1311.439203 1950.987395 C 1315.382549 1952.620111 1319.210388 1954.445417 1322.986926 1956.450498 C 1326.73778 1958.455569 1330.385963 1960.640392 1333.931476 1963.004969 C 1337.464151 1965.382383 1340.894145 1967.913865 1344.182936 1970.612241 C 1347.484575 1973.323465 1350.632163 1976.188736 1353.638537 1979.195214 C 1356.657758 1982.214541 1359.522919 1985.362229 1362.22118 1988.651114 C 1364.919441 1991.939999 1367.450804 1995.370082 1369.828095 1998.90284 C 1372.192548 2002.448435 1374.377244 2006.096694 1376.395031 2009.860466 C 1378.399971 2013.611389 1380.225154 2017.464977 1381.844884 2021.395532 C 1383.477462 2025.338935 1384.917425 2029.346469 1386.151936 2033.430971 C 1387.373599 2037.502624 1388.415485 2041.625571 1389.251908 2045.7998 C 1390.075494 2049.986866 1390.706444 2054.186692 1391.131932 2058.437801 C 1391.544573 2062.676061 1391.75174 2066.939918 1391.740577 2071.190839 Z M 1391.740577 2071.190839 " stroke="#4ec4c4" stroke-width="1" stroke-opacity="1" stroke-miterlimit="10"/><path stroke-linecap="butt" transform="matrix(0.214986, 0, 0, 0.215164, 206.339356, 0)" fill-opacity="1" fill="#ffffff" fill-rule="nonzero" stroke-linejoin="miter" d="M 1349.944406 2034.262994 C 1349.944406 2037.639786 1349.61735 2040.980269 1348.963237 2044.284442 C 1348.309125 2047.606769 1347.327957 2050.820168 1346.037902 2053.924638 C 1344.747848 2057.047263 1343.167077 2060.006495 1341.295589 2062.802333 C 1339.424102 2065.616326 1337.280067 2068.212462 1334.899826 2070.59074 C 1332.519585 2072.987173 1329.921306 2075.111284 1327.123159 2076.981228 C 1324.306843 2078.851172 1321.363338 2080.43064 1318.238136 2081.737785 C 1315.112933 2083.026775 1311.915052 2083.988979 1308.608151 2084.660707 C 1305.301251 2085.31428 1301.958011 2085.641066 1298.578431 2085.641066 C 1295.198852 2085.641066 1291.873782 2085.31428 1288.566881 2084.660707 C 1285.241811 2083.988979 1282.04393 2083.026775 1278.918727 2081.737785 C 1275.811694 2080.43064 1272.85002 2078.851172 1270.033704 2076.981228 C 1267.235557 2075.111284 1264.637278 2072.987173 1262.257037 2070.59074 C 1259.876795 2068.212462 1257.732761 2065.616326 1255.861274 2062.802333 C 1253.989786 2060.006495 1252.409015 2057.047263 1251.11896 2053.924638 C 1249.828906 2050.820168 1248.847738 2047.606769 1248.193625 2044.284442 C 1247.539513 2040.980269 1247.212457 2037.639786 1247.212457 2034.262994 C 1247.212457 2030.904357 1247.539513 2027.563875 1248.193625 2024.241547 C 1248.847738 2020.937375 1249.828906 2017.723976 1251.11896 2014.619506 C 1252.409015 2011.496881 1253.989786 2008.537649 1255.861274 2005.723656 C 1257.732761 2002.927817 1259.876795 2000.331682 1262.257037 1997.953403 C 1264.637278 1995.55697 1267.235557 1993.432859 1270.033704 1991.562915 C 1272.85002 1989.674817 1275.811694 1988.095349 1278.918727 1986.806359 C 1282.04393 1985.517368 1285.241811 1984.53701 1288.566881 1983.883437 C 1291.873782 1983.229864 1295.198852 1982.903078 1298.578431 1982.903078 C 1301.958011 1982.903078 1305.301251 1983.229864 1308.608151 1983.883437 C 1311.915052 1984.53701 1315.112933 1985.517368 1318.238136 1986.806359 C 1321.363338 1988.095349 1324.306843 1989.674817 1327.123159 1991.562915 C 1329.921306 1993.432859 1332.519585 1995.55697 1334.899826 1997.953403 C 1337.280067 2000.331682 1339.424102 2002.927817 1341.295589 2005.723656 C 1343.167077 2008.537649 1344.747848 2011.496881 1346.037902 2014.619506 C 1347.327957 2017.723976 1348.309125 2020.937375 1348.963237 2024.241547 C 1349.61735 2027.563875 1349.944406 2030.904357 1349.944406 2034.262994 Z M 1349.944406 2034.262994 " stroke="#4ec4c4" stroke-width="1" stroke-opacity="1" stroke-miterlimit="10"/><path stroke-linecap="butt" transform="matrix(0.152015, -0.152146, 0.152021, 0.152141, -71.692656, 219.530699)" fill-opacity="1" fill="#050505" fill-rule="nonzero" stroke-linejoin="miter" d="M 715.066088 2071.18194 C 715.067773 2075.445709 714.863975 2079.70939 714.441836 2083.934448 C 714.019708 2088.185192 713.404924 2092.397325 712.571799 2096.570836 C 711.738674 2100.744347 710.712894 2104.879248 709.468763 2108.949841 C 708.23748 2113.033282 706.800683 2117.039579 705.171221 2120.981579 C 703.528911 2124.910731 701.706774 2128.76275 699.704798 2132.511951 C 697.689984 2136.273988 695.50817 2139.920369 693.146518 2143.463932 C 690.772029 2147.020332 688.243366 2150.422554 685.534866 2153.721956 C 682.826365 2157.021359 679.976539 2160.179432 676.97254 2163.183326 C 673.955703 2166.200057 670.797531 2169.049773 667.498034 2171.758158 C 664.211374 2174.453707 660.796227 2176.995088 657.252582 2179.356616 C 653.696099 2181.730982 650.062489 2183.925516 646.287534 2185.92735 C 642.538263 2187.929195 638.686181 2189.751199 634.756971 2191.393371 C 630.814914 2193.022696 626.821404 2194.446516 622.73792 2195.677656 C 618.667284 2196.921645 614.51951 2197.960118 610.34597 2198.793097 C 606.17243 2199.626077 601.960275 2200.240714 597.722364 2200.675542 C 593.484443 2201.084685 589.220755 2201.288334 584.969834 2201.299349 C 580.706065 2201.297516 576.455053 2201.077362 572.216807 2200.664574 C 567.978561 2200.251786 563.778757 2199.620688 559.591719 2198.796957 C 555.417519 2197.960388 551.281771 2196.931195 547.21015 2195.683705 C 543.125692 2194.449052 539.118208 2193.008949 535.187709 2191.389081 C 531.244363 2189.756366 527.403687 2187.943897 523.639986 2185.925978 C 519.889132 2183.920908 516.240949 2181.736084 512.695437 2179.371508 C 509.149924 2177.006931 505.732767 2174.462611 502.431128 2171.751387 C 499.142337 2169.053011 495.981912 2166.200578 492.975538 2163.194099 C 489.956316 2160.174772 487.103994 2157.014248 484.405732 2153.725362 C 481.694623 2150.423629 479.163271 2147.019232 476.798818 2143.473637 C 474.434364 2139.928041 472.249668 2136.279782 470.231881 2132.516011 C 468.226941 2128.765087 466.401759 2124.9115 464.769181 2120.968097 C 463.149451 2117.037541 461.709487 2113.030008 460.462139 2108.958343 C 459.227628 2104.873842 458.211428 2100.750906 457.375004 2096.576677 C 456.538581 2092.402448 455.90762 2088.176936 455.49498 2083.938676 C 455.08234 2079.700416 454.862335 2075.449396 454.873497 2071.198475 C 454.871813 2066.934706 455.075611 2062.671026 455.497749 2058.445967 C 455.919878 2054.195223 456.534662 2049.98309 457.367787 2045.809579 C 458.200912 2041.636068 459.226692 2037.501168 460.470823 2033.430575 C 461.702106 2029.347133 463.138902 2025.340837 464.768365 2021.398836 C 466.410674 2017.469684 468.232812 2013.617665 470.234788 2009.868465 C 472.249601 2006.106427 474.431415 2002.460046 476.793067 1998.916483 C 479.167557 1995.360083 481.69622 1991.957862 484.40472 1988.658459 C 487.113221 1985.359056 489.963047 1982.200984 492.967046 1979.19709 C 495.983883 1976.180358 499.142055 1973.330643 502.441552 1970.622257 C 505.728212 1967.926709 509.143359 1965.385328 512.687004 1963.023799 C 516.243487 1960.649434 519.877097 1958.454899 523.652052 1956.453065 C 527.401322 1954.45122 531.253405 1952.629217 535.182615 1950.987044 C 539.124672 1949.357719 543.131019 1947.921063 547.214503 1946.689922 C 551.272302 1945.45877 555.420076 1944.420297 559.593616 1943.587318 C 563.767156 1942.754339 567.979311 1942.139702 572.217222 1941.704873 C 576.455143 1941.29573 580.718831 1941.092081 584.969752 1941.081066 C 589.233521 1941.0829 593.484533 1941.303053 597.722779 1941.715842 C 601.961025 1942.12863 606.160829 1942.759727 610.347866 1943.583459 C 614.522066 1944.420028 618.657815 1945.44922 622.729435 1946.696711 C 626.813894 1947.931364 630.821378 1949.371467 634.751876 1950.991334 C 638.695223 1952.62405 642.535899 1954.436518 646.2996 1956.454437 C 650.050453 1958.459507 653.698636 1960.644331 657.244149 1963.008908 C 660.789662 1965.373485 664.206819 1967.917804 667.508458 1970.629028 C 670.797249 1973.327404 673.957674 1976.179837 676.964048 1979.186316 C 679.98327 1982.205643 682.835592 1985.366168 685.533854 1988.655053 C 688.244963 1991.956786 690.776315 1995.361184 693.140768 1998.906779 C 695.505221 2002.452374 697.689918 2006.100633 699.707705 2009.864405 C 701.712644 2013.615328 703.537827 2017.468915 705.157557 2021.399471 C 706.790135 2025.342874 708.230098 2029.350408 709.477447 2033.422072 C 710.711958 2037.506574 711.728158 2041.629509 712.564581 2045.803739 C 713.401005 2049.977968 714.031965 2054.203479 714.444606 2058.441739 C 714.857246 2062.68 715.077251 2066.93102 715.066088 2071.18194 Z M 715.066088 2071.18194 " stroke="#4ec4c4" stroke-width="1" stroke-opacity="1" stroke-miterlimit="10"/><path stroke-linecap="butt" transform="matrix(0.214986, 0, 0, 0.215164, 206.339356, 0)" fill-opacity="1" fill="#ffffff" fill-rule="nonzero" stroke-linejoin="miter" d="M 673.265378 2034.262994 C 673.265378 2037.639786 672.938322 2040.980269 672.26604 2044.284442 C 671.611928 2047.606769 670.64893 2050.820168 669.340705 2053.924638 C 668.050651 2057.047263 666.46988 2060.006495 664.598392 2062.802333 C 662.726905 2065.616326 660.60104 2068.212462 658.220799 2070.59074 C 655.822387 2072.987173 653.242278 2075.111284 650.425962 2076.981228 C 647.627816 2078.851172 644.666141 2080.43064 641.540939 2081.737785 C 638.433906 2083.026775 635.217854 2083.988979 631.910954 2084.660707 C 628.604054 2085.31428 625.260814 2085.641066 621.881234 2085.641066 C 618.519825 2085.641066 615.176585 2085.31428 611.869684 2084.660707 C 608.562784 2083.988979 605.346733 2083.026775 602.2397 2081.737785 C 599.114497 2080.43064 596.152823 2078.851172 593.354676 2076.981228 C 590.53836 2075.111284 587.958251 2072.987173 585.55984 2070.59074 C 583.179598 2068.212462 581.053734 2065.616326 579.182246 2062.802333 C 577.310759 2060.006495 575.729988 2057.047263 574.421763 2053.924638 C 573.131709 2050.820168 572.16871 2047.606769 571.514598 2044.284442 C 570.842316 2040.980269 570.51526 2037.639786 570.51526 2034.262994 C 570.51526 2030.904357 570.842316 2027.563875 571.514598 2024.241547 C 572.16871 2020.937375 573.131709 2017.723976 574.421763 2014.619506 C 575.729988 2011.496881 577.310759 2008.537649 579.182246 2005.723656 C 581.053734 2002.927817 583.179598 2000.331682 585.55984 1997.953403 C 587.958251 1995.55697 590.53836 1993.432859 593.354676 1991.562915 C 596.152823 1989.674817 599.114497 1988.095349 602.2397 1986.806359 C 605.346733 1985.517368 608.562784 1984.53701 611.869684 1983.883437 C 615.176585 1983.229864 618.519825 1982.903078 621.881234 1982.903078 C 625.260814 1982.903078 628.604054 1983.229864 631.910954 1983.883437 C 635.217854 1984.53701 638.433906 1985.517368 641.540939 1986.806359 C 644.666141 1988.095349 647.627816 1989.674817 650.425962 1991.562915 C 653.242278 1993.432859 655.822387 1995.55697 658.220799 1997.953403 C 660.60104 2000.331682 662.726905 2002.927817 664.598392 2005.723656 C 666.46988 2008.537649 668.050651 2011.496881 669.340705 2014.619506 C 670.64893 2017.723976 671.611928 2020.937375 672.26604 2024.241547 C 672.938322 2027.563875 673.265378 2030.904357 673.265378 2034.262994 Z M 673.265378 2034.262994 " stroke="#4ec4c4" stroke-width="1" stroke-opacity="1" stroke-miterlimit="10"/><path stroke-linecap="butt" transform="matrix(0.214986, 0, 0, 0.215164, 206.339356, 0)" fill-opacity="1" fill="#ffa6b9" fill-rule="nonzero" stroke-linejoin="miter" d="M 1711.068826 2334.3073 C 1711.068826 2337.375461 1710.814449 2340.461776 1710.323865 2343.529936 C 1709.815111 2346.598097 1709.07015 2349.648103 1708.088982 2352.661799 C 1707.107814 2355.693649 1705.872268 2358.689191 1704.400516 2361.630268 C 1702.946933 2364.589499 1701.238974 2367.476112 1699.294807 2370.326415 C 1697.36881 2373.176718 1695.206606 2375.972556 1692.826365 2378.695775 C 1690.427954 2381.40084 1687.847844 2384.05144 1685.031528 2386.611266 C 1682.215212 2389.171092 1679.217198 2391.658299 1676.001147 2394.036578 C 1672.785095 2396.414856 1669.405516 2398.70236 1665.826068 2400.880936 C 1662.246621 2403.059511 1658.503646 2405.129158 1654.597143 2407.089876 C 1650.67247 2409.050594 1646.620609 2410.884228 1642.405219 2412.590779 C 1638.208 2414.297329 1633.865422 2415.894951 1629.413825 2417.347335 C 1624.944059 2418.799719 1620.383443 2420.106864 1615.713809 2421.286926 C 1611.044175 2422.466987 1606.283692 2423.501811 1601.432361 2424.409551 C 1596.599198 2425.299136 1591.693357 2426.043482 1586.733007 2426.64259 C 1581.772656 2427.259853 1576.775966 2427.695569 1571.742936 2428.0042 C 1566.709907 2428.312832 1561.658707 2428.45807 1556.607508 2428.45807 C 1551.538139 2428.45807 1546.486939 2428.312832 1541.45391 2428.0042 C 1536.42088 2427.695569 1531.42419 2427.259853 1526.463839 2426.64259 C 1521.503489 2426.043482 1516.597648 2425.299136 1511.764486 2424.409551 C 1506.913154 2423.501811 1502.170841 2422.466987 1497.483037 2421.286926 C 1492.813403 2420.106864 1488.252787 2418.799719 1483.783021 2417.347335 C 1479.331424 2415.894951 1474.988846 2414.297329 1470.791627 2412.590779 C 1466.576237 2410.884228 1462.524376 2409.050594 1458.617873 2407.089876 C 1454.6932 2405.129158 1450.950225 2403.059511 1447.388947 2400.880936 C 1443.8095 2398.70236 1440.411751 2396.414856 1437.1957 2394.036578 C 1433.997818 2391.658299 1430.981634 2389.171092 1428.165318 2386.611266 C 1425.367171 2384.05144 1422.768893 2381.40084 1420.370481 2378.677621 C 1417.99024 2375.972556 1415.828036 2373.176718 1413.902039 2370.326415 C 1411.957872 2367.476112 1410.268082 2364.589499 1408.79633 2361.630268 C 1407.324578 2358.689191 1406.089032 2355.693649 1405.107864 2352.661799 C 1404.126696 2349.648103 1403.381735 2346.598097 1402.891151 2343.529936 C 1402.382397 2340.461776 1402.14619 2337.375461 1402.14619 2334.3073 C 1402.14619 2331.220985 1402.382397 2328.13467 1402.891151 2325.066509 C 1403.381735 2321.998349 1404.126696 2318.948343 1405.107864 2315.934647 C 1406.089032 2312.902796 1407.324578 2309.92541 1408.79633 2306.966178 C 1410.268082 2304.006947 1411.957872 2301.120334 1413.902039 2298.270031 C 1415.828036 2295.419728 1417.99024 2292.642045 1420.370481 2289.918825 C 1422.768893 2287.195606 1425.367171 2284.545006 1428.165318 2281.98518 C 1430.981634 2279.425353 1433.997818 2276.956301 1437.1957 2274.559868 C 1440.411751 2272.18159 1443.8095 2269.894086 1447.388947 2267.71551 C 1450.950225 2265.536935 1454.6932 2263.467288 1458.617873 2261.50657 C 1462.524376 2259.564007 1466.576237 2257.730373 1470.791627 2256.005667 C 1474.988846 2254.299116 1479.331424 2252.719649 1483.783021 2251.267266 C 1488.252787 2249.796727 1492.813403 2248.489582 1497.483037 2247.30952 C 1502.170841 2246.129458 1506.913154 2245.094635 1511.764486 2244.186895 C 1516.597648 2243.29731 1521.503489 2242.552964 1526.463839 2241.953855 C 1531.42419 2241.354747 1536.42088 2240.900877 1541.45391 2240.592246 C 1546.486939 2240.283614 1551.538139 2240.138376 1556.607508 2240.138376 C 1561.658707 2240.138376 1566.709907 2240.283614 1571.742936 2240.592246 C 1576.775966 2240.900877 1581.772656 2241.354747 1586.733007 2241.953855 C 1591.693357 2242.552964 1596.599198 2243.29731 1601.432361 2244.186895 C 1606.283692 2245.094635 1611.044175 2246.129458 1615.713809 2247.30952 C 1620.383443 2248.489582 1624.944059 2249.796727 1629.413825 2251.267266 C 1633.865422 2252.719649 1638.208 2254.299116 1642.405219 2256.005667 C 1646.620609 2257.730373 1650.67247 2259.564007 1654.597143 2261.50657 C 1658.503646 2263.467288 1662.246621 2265.536935 1665.826068 2267.71551 C 1669.405516 2269.894086 1672.785095 2272.18159 1676.001147 2274.559868 C 1679.217198 2276.956301 1682.215212 2279.425353 1685.031528 2281.98518 C 1687.847844 2284.545006 1690.427954 2287.195606 1692.826365 2289.918825 C 1695.206606 2292.642045 1697.36881 2295.419728 1699.294807 2298.270031 C 1701.238974 2301.120334 1702.946933 2304.025101 1704.400516 2306.966178 C 1705.872268 2309.92541 1707.107814 2312.902796 1708.088982 2315.934647 C 1709.07015 2318.948343 1709.815111 2321.998349 1710.323865 2325.066509 C 1710.814449 2328.13467 1711.068826 2331.220985 1711.068826 2334.3073 Z M 1711.068826 2334.3073 " stroke="#4ec4c4" stroke-width="1" stroke-opacity="1" stroke-miterlimit="10"/><path stroke-linecap="butt" transform="matrix(0.214986, 0, 0, 0.215164, 206.339356, 0)" fill-opacity="1" fill="#ffa6b9" fill-rule="nonzero" stroke-linejoin="miter" d="M 444.489651 2334.3073 C 444.489651 2337.375461 444.235274 2340.461776 443.74469 2343.529936 C 443.254106 2346.598097 442.509145 2349.648103 441.527977 2352.661799 C 440.528639 2355.693649 439.311263 2358.689191 437.839511 2361.630268 C 436.367758 2364.589499 434.659799 2367.476112 432.733802 2370.326415 C 430.789635 2373.176718 428.627431 2375.972556 426.24719 2378.695775 C 423.866948 2381.40084 421.26867 2384.05144 418.452353 2386.611266 C 415.654207 2389.171092 412.638023 2391.658299 409.421972 2394.036578 C 406.22409 2396.414856 402.826341 2398.70236 399.246894 2400.880936 C 395.667446 2403.059511 391.924471 2405.129158 388.017968 2407.089876 C 384.111465 2409.050594 380.041434 2410.884228 375.844214 2412.590779 C 371.628825 2414.297329 367.304416 2415.894951 362.83465 2417.347335 C 358.383053 2418.799719 353.804268 2420.106864 349.134634 2421.286926 C 344.465 2422.466987 339.704517 2423.501811 334.871355 2424.409551 C 330.020023 2425.299136 325.132352 2426.043482 320.172002 2426.64259 C 315.193481 2427.259853 310.196791 2427.695569 305.163761 2428.0042 C 300.130732 2428.312832 295.097702 2428.45807 290.028333 2428.45807 C 284.977134 2428.45807 279.925934 2428.312832 274.892904 2428.0042 C 269.859875 2427.695569 264.863185 2427.259853 259.902834 2426.64259 C 254.942484 2426.043482 250.036642 2425.299136 245.185311 2424.409551 C 240.352149 2423.501811 235.591666 2422.466987 230.922032 2421.286926 C 226.252398 2420.106864 221.673612 2418.799719 217.222016 2417.347335 C 212.752249 2415.894951 208.427841 2414.297329 204.212452 2412.590779 C 200.015232 2410.884228 195.945201 2409.050594 192.038698 2407.089876 C 188.132195 2405.129158 184.389219 2403.059511 180.809772 2400.880936 C 177.230325 2398.70236 173.832576 2396.414856 170.634694 2394.036578 C 167.418643 2391.658299 164.420629 2389.171092 161.604313 2386.611266 C 158.787996 2384.05144 156.189718 2381.40084 153.809476 2378.677621 C 151.429235 2375.972556 149.267031 2373.176718 147.322864 2370.326415 C 145.396867 2367.476112 143.688907 2364.589499 142.217155 2361.630268 C 140.745403 2358.689191 139.528027 2355.693649 138.546859 2352.661799 C 137.547521 2349.648103 136.80256 2346.598097 136.311976 2343.529936 C 135.821392 2340.461776 135.567015 2337.375461 135.567015 2334.3073 C 135.567015 2331.220985 135.821392 2328.13467 136.311976 2325.066509 C 136.80256 2321.998349 137.547521 2318.948343 138.546859 2315.934647 C 139.528027 2312.902796 140.745403 2309.92541 142.217155 2306.966178 C 143.688907 2304.006947 145.396867 2301.120334 147.322864 2298.270031 C 149.267031 2295.419728 151.429235 2292.642045 153.809476 2289.918825 C 156.189718 2287.195606 158.787996 2284.545006 161.604313 2281.98518 C 164.420629 2279.425353 167.418643 2276.956301 170.634694 2274.559868 C 173.832576 2272.18159 177.230325 2269.894086 180.809772 2267.71551 C 184.389219 2265.536935 188.132195 2263.467288 192.038698 2261.50657 C 195.945201 2259.564007 200.015232 2257.730373 204.212452 2256.005667 C 208.427841 2254.299116 212.752249 2252.719649 217.222016 2251.267266 C 221.673612 2249.796727 226.252398 2248.489582 230.922032 2247.30952 C 235.591666 2246.129458 240.352149 2245.094635 245.185311 2244.186895 C 250.036642 2243.29731 254.942484 2242.552964 259.902834 2241.953855 C 264.863185 2241.354747 269.859875 2240.900877 274.892904 2240.592246 C 279.925934 2240.283614 284.977134 2240.138376 290.028333 2240.138376 C 295.097702 2240.138376 300.130732 2240.283614 305.163761 2240.592246 C 310.196791 2240.900877 315.193481 2241.354747 320.172002 2241.953855 C 325.132352 2242.552964 330.020023 2243.29731 334.871355 2244.186895 C 339.704517 2245.094635 344.465 2246.129458 349.134634 2247.30952 C 353.804268 2248.489582 358.383053 2249.796727 362.83465 2251.267266 C 367.304416 2252.719649 371.628825 2254.299116 375.844214 2256.005667 C 380.041434 2257.730373 384.111465 2259.564007 388.017968 2261.50657 C 391.924471 2263.467288 395.667446 2265.536935 399.246894 2267.71551 C 402.826341 2269.894086 406.22409 2272.18159 409.421972 2274.559868 C 412.638023 2276.956301 415.654207 2279.425353 418.452353 2281.98518 C 421.26867 2284.545006 423.866948 2287.195606 426.24719 2289.918825 C 428.627431 2292.642045 430.789635 2295.419728 432.733802 2298.270031 C 434.659799 2301.120334 436.367758 2304.025101 437.839511 2306.966178 C 439.311263 2309.92541 440.528639 2312.902796 441.527977 2315.934647 C 442.509145 2318.948343 443.254106 2321.998349 443.74469 2325.066509 C 444.235274 2328.13467 444.489651 2331.220985 444.489651 2334.3073 Z M 444.489651 2334.3073 " stroke="#4ec4c4" stroke-width="1" stroke-opacity="1" stroke-miterlimit="10"/><path fill="#754c29" d="M 327.96875 519.574219 C 309.339844 519.574219 291.828125 512.316406 278.660156 499.132812 C 265.488281 485.949219 258.234375 468.421875 258.234375 449.78125 C 258.234375 431.136719 265.484375 413.609375 278.660156 400.429688 C 291.832031 387.246094 309.34375 379.984375 327.96875 379.984375 C 346.597656 379.984375 364.109375 387.246094 377.28125 400.429688 C 390.453125 413.609375 397.707031 431.136719 397.707031 449.78125 C 397.707031 468.421875 390.453125 485.953125 377.28125 499.132812 C 364.109375 512.3125 346.597656 519.574219 327.96875 519.574219 Z M 327.96875 390.742188 C 295.441406 390.742188 268.980469 417.226562 268.980469 449.777344 C 268.980469 482.332031 295.445312 508.8125 327.96875 508.8125 C 360.496094 508.8125 386.957031 482.328125 386.957031 449.777344 C 386.957031 417.226562 360.496094 390.742188 327.96875 390.742188 Z M 327.96875 390.742188 " fill-opacity="1" fill-rule="nonzero"/><path fill="#754c29" d="M 488.46875 515.441406 C 469.839844 515.441406 452.328125 508.183594 439.160156 495 C 425.984375 481.816406 418.734375 464.289062 418.734375 445.648438 C 418.734375 427.003906 425.984375 409.476562 439.160156 396.292969 C 452.332031 383.113281 469.84375 375.851562 488.46875 375.851562 C 507.097656 375.851562 524.609375 383.113281 537.78125 396.292969 C 550.953125 409.476562 558.207031 427.003906 558.207031 445.648438 C 558.207031 464.289062 550.953125 481.816406 537.78125 495 C 524.609375 508.179688 507.097656 515.441406 488.46875 515.441406 Z M 488.46875 386.609375 C 455.941406 386.609375 429.480469 413.09375 429.480469 445.644531 C 429.480469 478.195312 455.945312 504.679688 488.46875 504.679688 C 520.996094 504.679688 547.457031 478.195312 547.457031 445.644531 C 547.457031 413.09375 520.996094 386.609375 488.46875 386.609375 Z M 488.46875 386.609375 " fill-opacity="1" fill-rule="nonzero"/><path fill="#754c29" d="M 392.027344 444.671875 L 424.105469 444.671875 L 424.105469 454.882812 L 392.027344 454.882812 Z M 392.027344 444.671875 " fill-opacity="1" fill-rule="nonzero"/><path fill="#231f20" d="M 408.066406 639.339844 C 394.097656 639.339844 381.027344 633.832031 371.257812 623.835938 C 361.800781 614.152344 356.597656 601.363281 356.597656 587.828125 L 356.597656 583.523438 L 459.535156 583.523438 L 459.535156 587.828125 C 459.535156 601.363281 454.332031 614.152344 444.878906 623.835938 C 435.109375 633.832031 422.035156 639.339844 408.066406 639.339844 Z M 365.40625 592.128906 C 366.367188 601.792969 370.542969 610.789062 377.40625 617.820312 C 385.542969 626.144531 396.433594 630.734375 408.066406 630.734375 C 419.703125 630.734375 430.589844 626.144531 438.730469 617.820312 C 445.589844 610.789062 449.765625 601.792969 450.726562 592.128906 Z M 365.40625 592.128906 " fill-opacity="1" fill-rule="nonzero"/></svg>